# xmcd CD database file
#
# Track frame offsets:
#	150
#	20442
#	36085
#	58947
#	79127
#	98950
#	120455
#	136310
#	162940
#	188297
#	217655
#	236100
#	256097
#	280422
#
# Disc length: 3916 seconds
#
# Revision: 0
# Processed by: cddbd v1.5.2PL0 Copyright (c) Steve Scherf et al.
# Submitted via: CDex 1.51
#
DISCID=b70f4a0e
DTITLE=The Blues Guys - Shut Up!
DYEAR=1995
DGENRE=Blues
TTITLE0=She's gone
TTITLE1=You're talkin' too much
TTITLE2=Rock'n'Roll show
TTITLE3=Shut up
TTITLE4=War
TTITLE5=Strange love
TTITLE6=Born under a bad sign
TTITLE7=Québec brew
TTITLE8=Apologies to a friend
TTITLE9=Câline de Blues
TTITLE10=Short contact
TTITLE11=Perfect harmony
TTITLE12=New generation
TTITLE13=Groovin' home
EXTD=
EXTT0=
EXTT1=
EXTT2=
EXTT3=
EXTT4=
EXTT5=
EXTT6=
EXTT7=
EXTT8=
EXTT9=
EXTT10=
EXTT11=
EXTT12=
EXTT13=
PLAYORDER=
